<svg xmlns="http://www.w3.org/2000/svg" width="375" height="812" viewBox="0 0 375 812">
  <rect width="375" height="812" fill="#f5f5f5"/>
  <rect x="32" y="48" width="140" height="18" rx="9" fill="#d9d9d9"/>
  <circle cx="323" cy="57" r="18" fill="#cfcfcf"/>
  <rect x="32" y="112" width="311" height="232" rx="16" fill="#c9c9c9"/>
  <rect x="32" y="376" width="240" height="20" rx="10" fill="#3a3a3a"/>
  <rect x="32" y="410" width="170" height="14" rx="7" fill="#a8a8a8"/>
  <rect x="32" y="470" width="311" height="60" rx="14" fill="#1a1a1a"/>
  <rect x="120" y="494" width="135" height="12" rx="6" fill="#f5f5f5"/>
  <rect x="32" y="580" width="96" height="96" rx="12" fill="#cfcfcf"/>
  <rect x="148" y="598" width="170" height="16" rx="8" fill="#3a3a3a"/>
  <rect x="148" y="628" width="120" height="12" rx="6" fill="#a8a8a8"/>
  <rect x="32" y="700" width="96" height="96" rx="12" fill="#cfcfcf"/>
  <rect x="148" y="718" width="170" height="16" rx="8" fill="#3a3a3a"/>
  <text x="187" y="300" font-family="Geist, Arial, sans-serif" font-size="20" fill="#6e6e6e" text-anchor="middle">placeholder final</text>
</svg>
